<svg width="511" height="511" viewBox="0 0 511 511" fill="none" xmlns="http://www.w3.org/2000/svg">
<g clip-path="url(#clip0)">
<path d="M422.704 75.1734C418.814 79.0759 418.814 85.3917 422.704 89.2942C426.607 93.185 432.923 93.185 436.825 89.2942C440.716 85.3917 440.716 79.0759 436.825 75.1734C432.923 71.2825 426.607 71.2825 422.704 75.1734Z" fill="white"/>
<path d="M422.689 0.124754C363.913 2.39376 292.545 30.152 235.746 79.8127C199.336 71.8322 160.978 82.9043 134.494 109.388C122.822 121.056 122.822 140.047 134.494 151.719L166.923 184.148C146.393 243.352 142.475 306.553 141.956 338.803C124.179 327.033 103.34 320.709 81.5315 320.709C52.2099 320.709 24.6505 332.124 3.91757 352.857C0.0228386 356.752 0.0228386 363.072 3.91757 366.966C24.6505 387.695 52.2099 399.114 81.5315 399.114C94.7595 399.114 107.625 396.783 119.668 392.327C115.216 404.374 112.884 417.239 112.884 430.467C112.884 459.785 124.299 487.348 145.028 508.077C146.978 510.026 149.531 511.001 152.085 511.001C154.639 511.001 157.192 510.026 159.141 508.077C179.871 487.348 191.29 459.785 191.29 430.467C191.29 408.654 184.966 387.816 173.192 370.038C205.449 369.524 268.65 365.61 327.855 345.079L360.28 377.504C371.948 389.173 390.938 389.173 402.607 377.504C429.09 351.021 440.162 312.666 432.186 276.261C475.901 226.214 509.609 155.462 511.874 88.2611C512.888 58.1442 505.706 32.3742 492.661 19.3333C479.457 6.12864 453.301 -1.05263 422.689 0.124754V0.124754ZM148.603 123.501C166.826 105.279 191.921 95.9765 217.161 97.3566C200.393 114.717 186.175 136.998 174.771 163.77L148.603 137.606C144.717 133.719 144.717 127.388 148.603 123.501ZM25.9565 359.914C41.7304 347.438 61.1105 340.666 81.5315 340.666C101.952 340.666 121.333 347.438 137.106 359.914C121.333 372.389 101.952 379.157 81.5315 379.157C61.1105 379.157 41.7304 372.385 25.9565 359.914ZM152.085 486.042C139.609 470.268 132.841 450.888 132.841 430.467C132.841 410.046 139.609 390.666 152.085 374.892C164.561 390.67 171.333 410.046 171.333 430.467C171.333 450.888 164.561 470.268 152.085 486.042V486.042ZM388.498 363.391C384.611 367.282 378.28 367.282 374.393 363.391L348.225 337.228C375.001 325.82 397.281 311.606 414.642 294.838C416.022 320.077 406.72 345.173 388.498 363.391V363.391ZM491.928 87.5905C491.001 115.189 483.5 146.838 470.763 177.208C442.884 184.039 412.455 178.635 386.556 162.078C381.917 159.111 375.745 160.468 372.775 165.115C369.808 169.754 371.165 175.926 375.808 178.896C401.336 195.212 431.176 202.596 460.502 199.263C447.96 223.711 432.315 246.393 413.835 266.888V266.892C410.217 270.908 406.439 274.888 402.607 278.717C347.43 333.894 240.139 350.42 161.89 350.105C161.555 271.925 177.987 164.682 233.282 109.392C237.141 105.528 241.118 101.758 245.114 98.1675C265.621 79.6646 288.311 64.0077 312.759 51.458C310.459 72.0428 313.399 93.5008 321.453 113.567C323.508 118.69 329.324 121.158 334.428 119.111C339.543 117.056 342.026 111.247 339.972 106.132C331.484 84.9862 329.695 62.1169 334.802 41.2046C364.825 28.612 396.131 21.1228 423.457 20.0662C451.207 18.9941 471.121 26.0194 478.552 33.4463C485.87 40.7641 492.845 60.3469 491.928 87.5905V87.5905Z" fill="white"/>
<path d="M344.17 137.037C340.28 140.939 340.28 147.255 344.17 151.158C348.073 155.048 354.389 155.048 358.291 151.158C362.182 147.255 362.182 140.939 358.291 137.037C354.389 133.146 348.073 133.146 344.17 137.037Z" fill="white"/>
</g>
<defs>
<clipPath id="clip0">
<rect width="511" height="511" fill="white"/>
</clipPath>
</defs>
</svg>
